<?xml version="1.0" encoding="UTF-8"?>
<svg xmlns="http://www.w3.org/2000/svg" xmlns:xlink="http://www.w3.org/1999/xlink" width="48px" height="px" viewBox="0 0 48 48" version="1.1">
<g id="surface1">
<path style=" stroke:none;fill-rule:nonzero;fill:rgb(0%,0%,0%);fill-opacity:1;" d="M 19.082031 24.75 L 19.082031 16.230469 C 19.082031 15.945312 19.195312 15.675781 19.394531 15.484375 C 19.457031 15.417969 19.53125 15.359375 19.617188 15.3125 L 26.078125 11.582031 C 25.007812 10.699219 23.675781 10.222656 22.289062 10.222656 L 22.300781 10.210938 C 19.71875 10.214844 17.53125 11.863281 16.71875 14.160156 L 16.730469 14.164062 C 16.503906 14.800781 16.382812 15.476562 16.386719 16.15625 L 16.386719 23.195312 Z M 19.082031 24.75 "/>
<path style=" stroke:none;fill-rule:nonzero;fill:rgb(0%,0%,0%);fill-opacity:1;" d="M 13.417969 26.628906 L 19.515625 30.148438 L 22.210938 28.589844 L 14.832031 24.328125 C 14.582031 24.1875 14.410156 23.957031 14.34375 23.691406 C 14.316406 23.601562 14.304688 23.507812 14.304688 23.410156 L 14.304688 15.949219 C 13.003906 16.433594 11.925781 17.351562 11.230469 18.550781 L 11.226562 18.535156 C 9.941406 20.773438 10.277344 23.492188 11.855469 25.347656 L 11.867188 25.335938 C 12.304688 25.851562 12.828125 26.289062 13.417969 26.628906 Z M 13.417969 26.628906 "/>
<path style=" stroke:none;fill-rule:nonzero;fill:rgb(0%,0%,0%);fill-opacity:1;" d="M 27.097656 27.804688 L 19.71875 32.066406 C 19.472656 32.207031 19.183594 32.242188 18.921875 32.167969 C 18.832031 32.144531 18.742188 32.109375 18.660156 32.0625 L 12.199219 28.332031 C 11.96875 29.699219 12.222656 31.089844 12.914062 32.292969 L 12.902344 32.289062 C 14.195312 34.519531 16.714844 35.589844 19.113281 35.148438 L 19.109375 35.132812 C 19.773438 35.011719 20.417969 34.78125 21.003906 34.4375 L 27.101562 30.917969 Z M 27.097656 27.804688 "/>
<path style=" stroke:none;fill-rule:nonzero;fill:rgb(0%,0%,0%);fill-opacity:1;" d="M 20.847656 20.121094 L 28.226562 15.863281 C 28.472656 15.71875 28.761719 15.683594 29.023438 15.757812 C 29.113281 15.78125 29.203125 15.816406 29.285156 15.863281 L 35.75 19.597656 C 35.976562 18.230469 35.722656 16.835938 35.03125 15.632812 L 35.046875 15.636719 C 33.75 13.40625 31.230469 12.335938 28.832031 12.777344 L 28.835938 12.792969 C 28.171875 12.914062 27.53125 13.148438 26.941406 13.488281 L 20.84375 17.007812 Z M 20.847656 20.121094 "/>
<path style=" stroke:none;fill-rule:nonzero;fill:rgb(0%,0%,0%);fill-opacity:1;" d="M 20.84375 25.769531 L 23.972656 27.578125 L 27.101562 25.769531 L 27.101562 22.15625 L 23.972656 20.347656 L 20.84375 22.15625 Z M 20.84375 25.769531 "/>
<path style=" stroke:none;fill-rule:nonzero;fill:rgb(0%,0%,0%);fill-opacity:1;" d="M 28.863281 23.175781 L 28.863281 31.699219 C 28.863281 31.984375 28.75 32.25 28.550781 32.441406 C 28.488281 32.507812 28.414062 32.566406 28.328125 32.613281 L 21.867188 36.34375 C 22.9375 37.226562 24.269531 37.703125 25.65625 37.703125 L 25.648438 37.714844 C 28.226562 37.710938 30.414062 36.0625 31.230469 33.765625 L 31.214844 33.761719 C 31.441406 33.125 31.5625 32.453125 31.5625 31.769531 L 31.558594 24.730469 Z M 28.863281 23.175781 "/>
<path style=" stroke:none;fill-rule:nonzero;fill:rgb(0%,0%,0%);fill-opacity:1;" d="M 23.972656 0.265625 C 10.878906 0.265625 0.265625 10.878906 0.265625 23.972656 C 0.265625 37.066406 10.878906 47.683594 23.972656 47.683594 C 37.066406 47.683594 47.683594 37.066406 47.683594 23.972656 C 47.683594 10.878906 37.066406 0.265625 23.972656 0.265625 Z M 38.5 30.417969 C 37.378906 32.378906 35.472656 33.769531 33.257812 34.242188 L 33.257812 34.253906 C 32.183594 37.542969 29.109375 39.769531 25.644531 39.769531 C 23.386719 39.78125 21.226562 38.824219 19.714844 37.144531 L 19.703125 37.148438 C 16.316406 37.863281 12.851562 36.3125 11.121094 33.316406 C 9.980469 31.363281 9.730469 29.015625 10.429688 26.867188 L 10.417969 26.855469 C 8.105469 24.285156 7.714844 20.507812 9.445312 17.507812 C 10.566406 15.546875 12.472656 14.15625 14.6875 13.683594 L 14.6875 13.671875 C 15.761719 10.382812 18.835938 8.15625 22.300781 8.15625 C 24.558594 8.144531 26.71875 9.101562 28.230469 10.78125 L 28.246094 10.777344 C 31.628906 10.0625 35.09375 11.613281 36.824219 14.609375 C 37.964844 16.5625 38.214844 18.910156 37.515625 21.058594 L 37.527344 21.070312 C 39.839844 23.640625 40.230469 27.417969 38.5 30.417969 Z M 38.5 30.417969 "/>
<path style=" stroke:none;fill-rule:nonzero;fill:rgb(0%,0%,0%);fill-opacity:1;" d="M 36.078125 22.589844 C 35.640625 22.074219 35.117188 21.636719 34.527344 21.296875 L 28.429688 17.777344 L 25.734375 19.335938 L 33.117188 23.597656 C 33.363281 23.738281 33.535156 23.96875 33.605469 24.234375 C 33.628906 24.324219 33.644531 24.417969 33.644531 24.515625 L 33.644531 31.976562 C 34.941406 31.492188 36.019531 30.578125 36.714844 29.375 L 36.71875 29.390625 C 38.003906 27.152344 37.671875 24.433594 36.089844 22.582031 Z M 36.078125 22.589844 "/>
</g>
</svg>
